<svg version="1.1" id="Layer_1" xmlns="http://www.w3.org/2000/svg" xmlns:xlink="http://www.w3.org/1999/xlink" x="0px" y="0px"
	 width="100%" viewBox="0 0 572 572" enable-background="new 0 0 572 572" xml:space="preserve">
<path fill="#6B3451" opacity="1.000000" stroke="none"
	d="
M3.000000,573.000000
	C2.333335,572.666687 1.216334,572.451965 1.090953,571.976013
	C0.803547,570.885071 1.000000,569.666687 1.000000,568.500000
	C1.000000,380.833344 0.997678,193.166672 1.041339,5.500010
	C1.041688,3.999932 1.666667,2.500000 2.511380,1.285538
	C3.029822,1.761454 3.036885,1.951833 2.871644,2.510365
	C2.544867,4.693203 2.255307,6.507873 2.255105,8.322575
	C2.234390,194.248245 2.233153,380.173920 2.267189,566.099609
	C2.267546,568.051392 2.748472,570.003113 3.004611,572.216125
	C3.002778,572.651611 3.001389,572.825806 3.000000,573.000000
z"/>
<path fill="#713551" opacity="1.000000" stroke="none"
	d="
M3.043948,2.142211
	C3.036885,1.951833 3.029822,1.761454 3.011380,1.285538
	C191.500000,1.000000 380.000000,0.997679 568.500000,1.041340
	C570.000061,1.041687 571.500000,1.666671 572.782715,2.482704
	C572.565430,2.965404 572.131348,2.925073 571.757019,2.732232
	C568.558899,2.426458 565.735107,2.214937 562.911316,2.214681
	C389.951996,2.198972 216.992691,2.201885 44.033371,2.198040
	C30.370230,2.197737 16.707088,2.161662 3.043948,2.142211
z"/>
<path fill="#713551" opacity="1.000000" stroke="none"
	d="
M3.461255,573.000000
	C3.001389,572.825806 3.002778,572.651611 3.471066,572.169983
	C6.770071,571.841492 9.602178,571.802063 12.434285,571.802002
	C196.207596,571.799072 379.980896,571.802551 563.754211,571.769287
	C566.546631,571.768799 569.338989,571.316467 572.348389,571.054810
	C572.565430,571.034607 573.000000,571.000000 573.000000,571.000000
	C572.667419,571.666687 572.453552,572.783691 571.978210,572.909058
	C570.888184,573.196411 569.670593,573.000000 568.504822,573.000000
	C380.310730,573.000000 192.116608,573.000000 3.461255,573.000000
z"/>
<path fill="#A03B53" opacity="1.000000" stroke="none"
	d="
M573.000000,570.538757
	C573.000000,571.000000 572.565430,571.034607 572.317505,570.581604
	C572.046814,568.296509 572.004028,566.464355 572.004028,564.632263
	C572.000977,379.561127 572.000549,194.490005 572.006409,9.418868
	C572.006470,7.254269 572.087952,5.089672 572.131348,2.925073
	C572.131348,2.925073 572.565430,2.965404 572.782715,2.982702
	C573.000000,192.025833 573.000000,381.051666 573.000000,570.538757
z"/>
<path fill="#EB4655" opacity="1.000000" stroke="none"
	d="
M571.757019,2.732232
	C572.087952,5.089672 572.006470,7.254269 572.006409,9.418868
	C572.000549,194.490005 572.000977,379.561127 572.004028,564.632263
	C572.004028,566.464355 572.046814,568.296509 572.100464,570.601807
	C569.338989,571.316467 566.546631,571.768799 563.754211,571.769287
	C379.980896,571.802551 196.207596,571.799072 12.434285,571.802002
	C9.602178,571.802063 6.770071,571.841492 3.471509,571.908691
	C2.748472,570.003113 2.267546,568.051392 2.267189,566.099609
	C2.233153,380.173920 2.234390,194.248245 2.255105,8.322575
	C2.255307,6.507873 2.544867,4.693203 2.871644,2.510365
	C16.707088,2.161662 30.370230,2.197737 44.033371,2.198040
	C216.992691,2.201885 389.951996,2.198972 562.911316,2.214681
	C565.735107,2.214937 568.558899,2.426458 571.757019,2.732232
M420.577637,231.721222
	C417.037659,224.770584 414.055267,217.462143 409.863373,210.929855
	C389.251099,178.809692 360.807495,157.011887 323.573822,147.548386
	C283.682343,137.409363 245.858566,142.999832 210.944504,164.750702
	C178.015732,185.264786 156.642838,214.792831 147.246246,252.450562
	C139.386917,283.947632 142.007767,314.875763 155.094131,344.697266
	C165.256180,367.854736 180.609619,386.975616 200.765411,402.261414
	C210.322327,409.509155 220.652466,415.308289 232.136154,419.929138
	C233.347687,416.555420 234.374023,413.591248 235.477066,410.655914
	C236.558807,407.777161 235.635117,405.938599 232.845154,404.717865
	C218.011932,398.227631 205.258774,388.785553 194.081131,377.151733
	C169.394882,351.457794 157.107376,320.644592 157.460648,285.154572
	C157.741608,256.928802 166.649643,231.358551 183.928070,208.826218
	C202.726151,184.312210 226.946777,168.145172 257.037811,160.881348
	C279.347260,155.496002 301.646301,155.913422 323.586365,162.280594
	C341.968933,167.615356 358.424438,176.772659 372.901581,189.570114
	C393.905884,208.137466 407.768677,230.957703 413.971497,258.147156
	C419.878784,284.041199 417.886169,309.494537 408.052765,334.391907
	C396.098206,364.659882 375.284576,386.783661 347.126953,402.364838
	C337.254547,407.827850 337.118591,407.714508 341.898834,418.264221
	C342.096375,418.700073 342.443604,419.068054 342.828705,419.622711
	C343.454254,419.414459 344.066467,419.245331 344.652374,419.010529
	C359.005859,413.258545 371.637939,404.801453 383.140228,394.555237
	C406.201630,374.011993 421.390259,348.731689 428.069946,318.591675
	C434.583496,289.201141 432.345398,260.397552 420.577637,231.721222
M243.490982,229.900070
	C275.300446,206.224289 317.562836,210.821274 342.873596,241.369171
	C359.088684,260.939423 363.337646,283.567535 356.152893,307.953064
	C350.737152,326.334534 339.066101,339.994324 322.620850,349.723785
	C321.346771,350.477600 319.741974,352.520477 319.966125,353.623901
	C320.744110,357.453766 322.261292,361.133484 323.506104,364.896912
	C354.383179,352.478790 381.545502,313.208923 371.934875,268.713043
	C363.482727,229.580841 326.182190,196.474106 279.105927,200.919296
	C239.499649,204.659103 206.547775,234.711456 201.338776,276.564331
	C195.911194,320.173584 224.344345,354.907349 251.132797,364.685608
	C252.082764,362.032166 252.892151,359.318878 254.015060,356.742188
	C255.660904,352.965485 254.520020,351.142395 250.890182,348.965759
	C233.077698,338.284729 221.092575,322.796112 216.975830,302.365875
	C211.138580,273.397064 220.151443,249.270279 243.490982,229.900070
M258.914093,291.687317
	C260.792267,301.992279 266.752777,309.142792 276.207581,313.254730
	C279.027100,314.480957 280.329681,315.632965 280.310333,318.976044
	C280.179779,341.521301 280.341461,364.068054 280.345795,386.614349
	C280.348297,399.707581 280.152740,412.801514 280.269043,425.893158
	C280.284729,427.657471 281.107422,430.255341 282.408234,431.022156
	C288.071625,434.360565 294.116211,430.752686 294.117584,424.353333
	C294.124908,390.387177 294.223328,356.420380 294.011902,322.455536
	C293.980164,317.357147 295.119781,314.396210 300.165527,312.209167
	C311.628174,307.240723 318.159393,293.934296 315.711914,282.200562
	C312.895172,268.696289 302.089142,259.103912 289.208740,258.267181
	C272.757111,257.198425 256.674805,270.969177 258.914093,291.687317
z"/>
<path fill="#ECE5D6" opacity="1.000000" stroke="none"
	d="
M420.697876,232.086151
	C432.345398,260.397552 434.583496,289.201141 428.069946,318.591675
	C421.390259,348.731689 406.201630,374.011993 383.140228,394.555237
	C371.637939,404.801453 359.005859,413.258545 344.652374,419.010529
	C344.066467,419.245331 343.454254,419.414459 342.828705,419.622711
	C342.443604,419.068054 342.096375,418.700073 341.898834,418.264221
	C337.118591,407.714508 337.254547,407.827850 347.126953,402.364838
	C375.284576,386.783661 396.098206,364.659882 408.052765,334.391907
	C417.886169,309.494537 419.878784,284.041199 413.971497,258.147156
	C407.768677,230.957703 393.905884,208.137466 372.901581,189.570114
	C358.424438,176.772659 341.968933,167.615356 323.586365,162.280594
	C301.646301,155.913422 279.347260,155.496002 257.037811,160.881348
	C226.946777,168.145172 202.726151,184.312210 183.928070,208.826218
	C166.649643,231.358551 157.741608,256.928802 157.460648,285.154572
	C157.107376,320.644592 169.394882,351.457794 194.081131,377.151733
	C205.258774,388.785553 218.011932,398.227631 232.845154,404.717865
	C235.635117,405.938599 236.558807,407.777161 235.477066,410.655914
	C234.374023,413.591248 233.347687,416.555420 232.136154,419.929138
	C220.652466,415.308289 210.322327,409.509155 200.765411,402.261414
	C180.609619,386.975616 165.256180,367.854736 155.094131,344.697266
	C142.007767,314.875763 139.386917,283.947632 147.246246,252.450562
	C156.642838,214.792831 178.015732,185.264786 210.944504,164.750702
	C245.858566,142.999832 283.682343,137.409363 323.573822,147.548386
	C360.807495,157.011887 389.251099,178.809692 409.863373,210.929855
	C414.055267,217.462143 417.037659,224.770584 420.697876,232.086151
z"/>
<path fill="#ECE5D6" opacity="1.000000" stroke="none"
	d="
M243.224808,230.140167
	C220.151443,249.270279 211.138580,273.397064 216.975830,302.365875
	C221.092575,322.796112 233.077698,338.284729 250.890182,348.965759
	C254.520020,351.142395 255.660904,352.965485 254.015060,356.742188
	C252.892151,359.318878 252.082764,362.032166 251.132797,364.685608
	C224.344345,354.907349 195.911194,320.173584 201.338776,276.564331
	C206.547775,234.711456 239.499649,204.659103 279.105927,200.919296
	C326.182190,196.474106 363.482727,229.580841 371.934875,268.713043
	C381.545502,313.208923 354.383179,352.478790 323.506104,364.896912
	C322.261292,361.133484 320.744110,357.453766 319.966125,353.623901
	C319.741974,352.520477 321.346771,350.477600 322.620850,349.723785
	C339.066101,339.994324 350.737152,326.334534 356.152893,307.953064
	C363.337646,283.567535 359.088684,260.939423 342.873596,241.369171
	C317.562836,210.821274 275.300446,206.224289 243.224808,230.140167
z"/>
<path fill="#ECE5D5" opacity="1.000000" stroke="none"
	d="
M258.841980,291.268555
	C256.674805,270.969177 272.757111,257.198425 289.208740,258.267181
	C302.089142,259.103912 312.895172,268.696289 315.711914,282.200562
	C318.159393,293.934296 311.628174,307.240723 300.165527,312.209167
	C295.119781,314.396210 293.980164,317.357147 294.011902,322.455536
	C294.223328,356.420380 294.124908,390.387177 294.117584,424.353333
	C294.116211,430.752686 288.071625,434.360565 282.408234,431.022156
	C281.107422,430.255341 280.284729,427.657471 280.269043,425.893158
	C280.152740,412.801514 280.348297,399.707581 280.345795,386.614349
	C280.341461,364.068054 280.179779,341.521301 280.310333,318.976044
	C280.329681,315.632965 279.027100,314.480957 276.207581,313.254730
	C266.752777,309.142792 260.792267,301.992279 258.841980,291.268555
M298.102753,296.560852
	C298.582642,295.880554 299.099487,295.223114 299.536469,294.516296
	C302.789276,289.255341 302.311462,282.749847 298.324738,277.775238
	C294.931641,273.541351 288.331665,271.536682 282.978210,273.113922
	C277.602875,274.697601 273.262909,280.366364 272.972992,286.177155
	C272.655640,292.536804 275.551453,297.171356 281.083160,299.895935
	C287.093719,302.856384 292.691406,301.511566 298.102753,296.560852
z"/>
<path fill="#EB4C5A" opacity="1.000000" stroke="none"
	d="
M297.871490,296.854675
	C292.691406,301.511566 287.093719,302.856384 281.083160,299.895935
	C275.551453,297.171356 272.655640,292.536804 272.972992,286.177155
	C273.262909,280.366364 277.602875,274.697601 282.978210,273.113922
	C288.331665,271.536682 294.931641,273.541351 298.324738,277.775238
	C302.311462,282.749847 302.789276,289.255341 299.536469,294.516296
	C299.099487,295.223114 298.582642,295.880554 297.871490,296.854675
z"/>
</svg>